<?xml version="1.0" encoding="UTF-8" standalone="no"?>
<!-- Created with Inkscape (http://www.inkscape.org/) -->

<svg
   xmlns:dc="http://purl.org/dc/elements/1.1/"
   xmlns:cc="http://creativecommons.org/ns#"
   xmlns:rdf="http://www.w3.org/1999/02/22-rdf-syntax-ns#"
   xmlns:svg="http://www.w3.org/2000/svg"
   xmlns="http://www.w3.org/2000/svg"
   xmlns:sodipodi="http://sodipodi.sourceforge.net/DTD/sodipodi-0.dtd"
   xmlns:inkscape="http://www.inkscape.org/namespaces/inkscape"
   width="31.985331"
   height="31.98534"
   viewBox="0 0 31.985331 31.98534"
   id="svg2"
   version="1.1"
   inkscape:version="0.91 r13725"
   sodipodi:docname="icon.svg">
  <defs
     id="defs4">
    <inkscape:perspective
       sodipodi:type="inkscape:persp3d"
       inkscape:vp_x="61.428572 : 127.06934 : 1"
       inkscape:vp_y="0 : 1000 : 0"
       inkscape:vp_z="545.56641 : 197.06934 : 1"
       inkscape:persp3d-origin="272.78321 : 131.37956 : 1"
       id="perspective5687" />
  </defs>
  <sodipodi:namedview
     id="base"
     pagecolor="#ffffff"
     bordercolor="#666666"
     borderopacity="1.0"
     inkscape:pageopacity="0.0"
     inkscape:pageshadow="2"
     inkscape:zoom="22.627417"
     inkscape:cx="18.327653"
     inkscape:cy="20.171278"
     inkscape:document-units="px"
     inkscape:current-layer="layer1"
     showgrid="false"
     inkscape:window-width="1920"
     inkscape:window-height="1017"
     inkscape:window-x="1912"
     inkscape:window-y="-8"
     inkscape:window-maximized="1"
     fit-margin-top="0"
     fit-margin-left="0"
     fit-margin-right="0"
     fit-margin-bottom="0"
     units="px">
    <inkscape:grid
       type="xygrid"
       id="grid5705"
       originx="-98.523201"
       originy="-42.026057" />
  </sodipodi:namedview>
  <metadata
     id="metadata7">
    <rdf:RDF>
      <cc:Work
         rdf:about="">
        <dc:format>image/svg+xml</dc:format>
        <dc:type
           rdf:resource="http://purl.org/dc/dcmitype/StillImage" />
        <dc:title></dc:title>
      </cc:Work>
    </rdf:RDF>
  </metadata>
  <g
     inkscape:label="Layer 1"
     inkscape:groupmode="layer"
     id="layer1"
     transform="translate(-177.50658,-601.06274)">
    <path
       style="opacity:1;fill:#3c81cf;fill-opacity:1;fill-rule:evenodd;stroke:none;stroke-width:3;stroke-miterlimit:4;stroke-dasharray:none;stroke-opacity:1"
       d="m 193.49925,601.06274 a 15.992612,15.992612 0 0 0 -15.99267,15.99267 15.992612,15.992612 0 0 0 15.99267,15.99267 15.992612,15.992612 0 0 0 15.99266,-15.99267 15.992612,15.992612 0 0 0 -15.99266,-15.99267 z m -3.14543,11.26579 c 0.37389,0 0.75655,0.0356 1.14824,0.10684 0.39168,0.0623 0.7522,0.17788 1.08157,0.34701 0.32936,0.16914 0.59646,0.39195 0.80121,0.66791 0.21364,0.27596 0.32056,0.62298 0.32056,1.04137 0,0.21365 -0.0446,0.42296 -0.13367,0.62771 -0.0801,0.19584 -0.19117,0.37818 -0.33359,0.54731 -0.13354,0.16915 -0.29374,0.32034 -0.48067,0.45386 -0.18693,0.12463 -0.38277,0.22254 -0.58751,0.29377 l 0,0.16043 c 0.24925,0.10684 0.48937,0.23139 0.72082,0.37383 0.24035,0.13352 0.44966,0.2937 0.62772,0.48065 0.17803,0.18694 0.32022,0.40075 0.42705,0.64111 0.11572,0.24035 0.17385,0.51161 0.17385,0.81427 0,0.53411 -0.0893,0.98839 -0.2673,1.36226 -0.16914,0.36499 -0.41825,0.66323 -0.74762,0.89467 -0.32937,0.22255 -0.73452,0.38724 -1.21522,0.49405 -0.4807,0.0979 -1.03255,0.14671 -1.65568,0.14671 -0.59643,0 -1.25968,-0.0668 -1.98964,-0.20029 -1.02371,-0.18695 -1.53543,-0.44505 -1.53543,-0.77442 0,-0.0535 0.10243,-0.15581 0.30717,-0.30716 0.20472,-0.15134 0.30714,-0.34717 0.30714,-0.58751 l 0,-5.80846 c 0,-0.16023 -0.13355,-0.28028 -0.40061,-0.36039 -0.25816,-0.0979 -0.38721,-0.23148 -0.38721,-0.40062 0,-0.12463 0.08,-0.23603 0.24017,-0.33395 0.16912,-0.0979 0.37845,-0.18235 0.62771,-0.25356 0.25814,-0.0802 0.53839,-0.14689 0.84106,-0.20031 0.31157,-0.0535 0.60531,-0.0936 0.88127,-0.12025 0.28486,-0.0356 0.5388,-0.0623 0.76135,-0.0802 0.22255,-0.0178 0.37825,-0.0269 0.46726,-0.0269 z m 7.69296,0 c 1.58454,0 2.81314,0.40514 3.68552,1.21522 0.88129,0.80117 1.32173,1.98928 1.32173,3.56491 0,1.46882 -0.49857,2.62613 -1.49557,3.47182 -0.9436,0.80117 -2.16285,1.20181 -3.65838,1.20181 -0.60532,0 -1.27307,-0.0668 -2.00303,-0.20029 -1.01483,-0.18695 -1.52238,-0.44505 -1.52238,-0.77442 0,-0.0624 0.10243,-0.16922 0.30715,-0.32056 0.20475,-0.15132 0.30715,-0.34266 0.30715,-0.57411 l 0,-5.80846 c 0,-0.16023 -0.13354,-0.28028 -0.40059,-0.36039 -0.25816,-0.0801 -0.38721,-0.21368 -0.38721,-0.40062 0,-0.31157 0.55635,-0.57002 1.66908,-0.77477 0.86349,-0.16022 1.58901,-0.24014 2.17653,-0.24014 z m -13.04755,0.10684 c 0.32937,0 0.58748,0.12007 0.77441,0.36042 0.18695,0.24036 0.2807,0.5832 0.2807,1.0283 0,0.0979 -0.0271,0.31591 -0.0804,0.65418 -0.0535,0.33826 -0.12883,0.7877 -0.22675,1.34852 -0.0891,0.48072 -0.1603,0.92598 -0.21372,1.33546 -0.0535,0.40949 -0.11118,0.86343 -0.17349,1.36194 -0.0267,0.16023 -0.0758,0.27164 -0.14706,0.33395 -0.0713,0.0535 -0.14698,0.0756 -0.22709,0.0667 -0.0802,-0.0178 -0.15555,-0.0624 -0.22677,-0.13366 -0.0623,-0.0713 -0.0979,-0.15113 -0.10685,-0.24015 -0.0623,-0.4629 -0.12458,-0.91235 -0.1869,-1.34854 -0.0623,-0.43619 -0.13808,-0.89494 -0.22711,-1.37566 -0.0979,-0.54301 -0.17369,-0.98795 -0.2271,-1.33513 -0.0445,-0.34717 -0.0667,-0.56964 -0.0667,-0.66757 0,-0.4451 0.0935,-0.78795 0.28036,-1.0283 0.18693,-0.24035 0.44504,-0.36042 0.77442,-0.36042 z m -1.85599,0.0281 c 0.0611,-0.005 0.10825,0.0319 0.14156,0.11062 0.0534,0.11343 0.0801,0.35924 0.0801,0.73732 0,0.25204 -0.005,0.45346 -0.0134,0.60468 -0.008,0.13863 -0.0221,0.25227 -0.0398,0.34049 -0.0177,0.0883 -0.04,0.15116 -0.0667,0.18896 -0.0266,0.0252 -0.0667,0.0567 -0.11991,0.0945 l -3.75732,2.49538 3.67727,2.41945 c 0.0711,0.0504 0.12424,0.0944 0.15977,0.13226 0.0444,0.0378 0.0757,0.10741 0.0935,0.2082 0.0267,0.0883 0.0444,0.20782 0.0533,0.35906 0.008,0.15121 0.0134,0.35299 0.0134,0.60503 0,0.22684 -0.008,0.40936 -0.0268,0.54799 -0.008,0.12603 -0.0312,0.21449 -0.0667,0.2649 -0.0266,0.0504 -0.062,0.0756 -0.1065,0.0756 -0.0355,-0.0126 -0.0843,-0.0378 -0.14636,-0.0756 l -4.99659,-3.53502 c -0.0533,-0.0378 -0.0978,-0.13222 -0.1333,-0.28347 -0.0266,-0.16383 -0.0398,-0.40334 -0.0398,-0.7184 0,-0.16384 0.005,-0.30264 0.0134,-0.41608 0.008,-0.12601 0.0176,-0.22672 0.0264,-0.30233 0.0177,-0.0757 0.0354,-0.13227 0.0533,-0.17007 0.0266,-0.0504 0.0579,-0.0883 0.0935,-0.11339 l 4.98319,-3.51613 c 0.0466,-0.033 0.0881,-0.0509 0.12472,-0.0539 z m 20.38389,0 c 0.0367,0.003 0.078,0.0209 0.12472,0.0539 l 4.98319,3.51613 c 0.0355,0.0252 0.0665,0.063 0.0931,0.11338 0.0177,0.0378 0.0355,0.0944 0.0533,0.17007 0.008,0.0757 0.0179,0.17631 0.0268,0.30234 0.008,0.11343 0.0134,0.25224 0.0134,0.41607 0,0.31506 -0.0135,0.55458 -0.0402,0.71841 -0.0355,0.15123 -0.0797,0.24565 -0.13295,0.28346 l -4.99661,3.53503 c -0.0621,0.0378 -0.11082,0.063 -0.14636,0.0756 -0.0444,0 -0.0802,-0.0252 -0.10685,-0.0756 -0.0356,-0.0504 -0.0578,-0.13888 -0.0667,-0.2649 -0.0177,-0.13863 -0.0264,-0.32117 -0.0264,-0.548 0,-0.25205 0.005,-0.45381 0.0134,-0.60503 0.008,-0.15123 0.0266,-0.27083 0.0533,-0.35905 0.0177,-0.10078 0.0487,-0.17039 0.0931,-0.2082 0.0355,-0.0378 0.0891,-0.0819 0.1601,-0.13227 l 3.67727,-2.41945 -3.75732,-2.49538 c -0.0534,-0.0378 -0.0933,-0.0692 -0.11991,-0.0945 -0.0266,-0.0378 -0.049,-0.10079 -0.0667,-0.18896 -0.0177,-0.0883 -0.031,-0.20186 -0.0398,-0.34048 -0.008,-0.15123 -0.0134,-0.35265 -0.0134,-0.60469 0,-0.37808 0.0267,-0.62388 0.08,-0.73731 0.0333,-0.0787 0.0804,-0.11555 0.14155,-0.11064 z m -13.02659,0.81289 c -0.28487,0 -0.53397,0.0758 -0.74763,0.22711 -0.21364,0.14243 -0.32055,0.34726 -0.32055,0.6143 l 0,5.91531 c 0,0.14243 0.0356,0.26249 0.10684,0.36042 0.0713,0.0891 0.16015,0.16478 0.26698,0.22709 0.11572,0.0535 0.24062,0.0936 0.37415,0.12026 0.13352,0.0267 0.26257,0.0398 0.38721,0.0398 0.24924,0 0.46271,-0.0442 0.64075,-0.13331 0.17804,-0.0979 0.32509,-0.22732 0.44081,-0.38756 0.11573,-0.16022 0.20015,-0.34706 0.25356,-0.5607 0.0535,-0.22255 0.0801,-0.45851 0.0801,-0.70777 0,-0.42728 -0.0935,-0.7788 -0.28037,-1.05477 -0.17803,-0.27595 -0.42265,-0.48528 -0.7342,-0.62771 -0.36499,-0.16912 -0.63659,-0.29819 -0.81462,-0.38721 -0.17804,-0.0979 -0.26698,-0.18234 -0.26698,-0.25355 0,-0.0623 0.08,-0.14707 0.24017,-0.25389 0.16025,-0.11573 0.37405,-0.24029 0.64112,-0.37382 0.28485,-0.15133 0.48934,-0.34266 0.61396,-0.57411 0.13353,-0.24035 0.2003,-0.50746 0.2003,-0.80121 0,-0.16025 -0.0221,-0.32043 -0.0667,-0.48067 -0.0446,-0.16913 -0.11129,-0.32033 -0.20031,-0.45386 -0.0801,-0.13351 -0.19118,-0.24043 -0.33361,-0.32055 -0.13353,-0.0891 -0.29407,-0.13365 -0.481,-0.13365 z m 7.74654,0 c -0.29375,0 -0.56085,0.0713 -0.80121,0.21371 -0.23145,0.13352 -0.3425,0.33835 -0.33361,0.6143 l 0,5.92871 c -0.008,0.24926 0.12016,0.44058 0.38721,0.57411 0.21366,0.10682 0.45825,0.16011 0.73423,0.16011 0.89019,0 1.58008,-0.37367 2.06968,-1.12142 0.41839,-0.64095 0.62771,-1.43325 0.62771,-2.37685 0,-1.07713 -0.17817,-1.95835 -0.53426,-2.6438 -0.4629,-0.89909 -1.17944,-1.34887 -2.14975,-1.34887 z m -13.24785,6.36952 c 0.28488,0 0.52533,0.0979 0.72116,0.29375 0.19584,0.19584 0.29376,0.43596 0.29376,0.72082 0,0.26705 -0.10243,0.50301 -0.30717,0.70777 -0.19583,0.20474 -0.43629,0.30714 -0.72114,0.30714 -0.28488,0 -0.52048,-0.0979 -0.70743,-0.29375 -0.18693,-0.19584 -0.28069,-0.4363 -0.28069,-0.72116 0,-0.28486 0.0938,-0.52498 0.28069,-0.72082 0.19584,-0.19584 0.43596,-0.29375 0.72082,-0.29375 z"
       id="path5789"
       inkscape:connector-curvature="0" />
  </g>
</svg>
