<?xml version="1.0" encoding="UTF-8" standalone="no"?>
<!-- Created with Inkscape (http://www.inkscape.org/) -->

<svg
   xmlns:dc="http://purl.org/dc/elements/1.1/"
   xmlns:cc="http://creativecommons.org/ns#"
   xmlns:rdf="http://www.w3.org/1999/02/22-rdf-syntax-ns#"
   xmlns:svg="http://www.w3.org/2000/svg"
   xmlns="http://www.w3.org/2000/svg"
   xmlns:sodipodi="http://sodipodi.sourceforge.net/DTD/sodipodi-0.dtd"
   xmlns:inkscape="http://www.inkscape.org/namespaces/inkscape"
   width="111.69149mm"
   height="111.67061mm"
   viewBox="0 0 395.75725 395.68326"
   id="svg2"
   version="1.1"
   inkscape:version="0.91 r13725"
   sodipodi:docname="icon.svg">
  <defs
     id="defs4" />
  <sodipodi:namedview
     id="base"
     pagecolor="#ffffff"
     bordercolor="#666666"
     borderopacity="1.0"
     inkscape:pageopacity="0.0"
     inkscape:pageshadow="2"
     inkscape:zoom="0.35"
     inkscape:cx="-1195.6642"
     inkscape:cy="163.56514"
     inkscape:document-units="px"
     inkscape:current-layer="layer1"
     showgrid="false"
     inkscape:window-width="1920"
     inkscape:window-height="1017"
     inkscape:window-x="1912"
     inkscape:window-y="-8"
     inkscape:window-maximized="1"
     fit-margin-top="0"
     fit-margin-left="0"
     fit-margin-right="0"
     fit-margin-bottom="0" />
  <metadata
     id="metadata7">
    <rdf:RDF>
      <cc:Work
         rdf:about="">
        <dc:format>image/svg+xml</dc:format>
        <dc:type
           rdf:resource="http://purl.org/dc/dcmitype/StillImage" />
        <dc:title></dc:title>
      </cc:Work>
    </rdf:RDF>
  </metadata>
  <g
     inkscape:label="Layer 1"
     inkscape:groupmode="layer"
     id="layer1"
     transform="translate(-182.09276,-300.24408)">
    <g
       id="g4169"
       transform="translate(368.57143,-231.42857)">
      <path
         style="fill:#e8e8e8"
         d="m 0.62858473,927.2078 c -0.16500001,-0.0734 -3.47250013,-0.27087 -7.35000023,-0.43893 -8.8563845,-0.38385 -15.3417905,-1.34169 -26.6353475,-3.93381 -25.007494,-5.73975 -48.864793,-16.45464 -69.906457,-31.39665 -41.13986,-29.21409 -69.59665,-72.71411 -79.67994,-121.8015 -2.69884,-13.1385 -3.32618,-20.70756 -3.32618,-40.13187 0,-18.8003 0.59905,-26.47546 3.02056,-38.70001 14.84679,-74.9514 72.0965,-135.18554 146.113802,-153.7307 16.789131,-4.20654 26.335932,-5.25084 48.113563,-5.26301 20.054574,-0.0112 26.65564,0.52729 40.350001,3.29168 74.435314,15.02575 134.353924,72.496 152.676424,146.43783 4.15071,16.75052 5.12151,25.84231 5.12151,47.96421 0,14.31643 -0.46032,23.5127 -1.50915,30.15 -4.32222,27.35225 -13.69431,52.41482 -28.29861,75.67542 -22.87413,36.43212 -58.12323,65.11215 -98.491434,80.13645 -16.713883,6.22062 -36.245698,10.6443 -50.048741,11.33535 -6.057399,0.30324 -29.6657823,0.62082 -30.15000027,0.40554 z M -79.021417,775.83203 c 1.646169,-0.74361 3.446433,-2.43087 4.245108,-3.97863 0.87942,-1.70425 1.060677,-4.82398 0.396456,-6.82376 -0.787059,-2.36962 -3.344085,-4.85508 -5.699247,-5.53975 -5.737137,-1.66782 -11.05909,1.88462 -11.472157,7.65776 -0.284916,3.98207 1.189539,6.74083 4.482076,8.38613 1.607667,0.80336 2.154201,0.92041 4.27068,0.91467 1.786497,-0.005 2.783394,-0.16754 3.777084,-0.61642 z m 78.6000017,-1.15419 c 12.9937623,-1.60228 20.7817803,-7.14767 24.1207803,-17.17501 2.213697,-6.64795 1.376031,-14.9978 -2.016375,-20.0992 -1.472016,-2.21357 -4.758159,-5.29726 -7.154028,-6.71327 -1.045206,-0.61774 -3.115371,-1.61923 -4.600368,-2.22552 -1.4985751,-0.61185 -2.7383761,-1.30169 -2.7862561,-1.55031 -0.055584,-0.28863 0.900966,-1.028 2.6893111,-2.07873 7.512594,-4.41396 11.086323,-10.93238 10.672812,-19.46701 -0.182496,-3.7666 -1.067664,-6.70696 -2.980416,-9.90035 -2.437146,-4.06889 -6.89766,-7.77364 -11.3435581,-9.42158 -4.8365672,-1.79275 -5.60804117,-1.84183 -28.9519029,-1.84183 l -21.3,0 -1.5,0.69109 c -2.731903,1.25865 -4.016515,2.9808 -4.636954,6.21629 -0.25011,1.30428 -0.31914,12.09009 -0.253401,39.59263 l 0.09035,37.8 0.956982,2.02018 c 1.352298,2.85468 2.875558,3.76828 7.593019,4.55402 1.753596,0.29207 38.6795886,-0.066 41.4000007,-0.4014 z m -32.3400007,-12.6828 c -0.518046,-0.51805 -0.518046,-26.96196 0,-27.48 0.559677,-0.55968 22.580538,-0.49493 26.3400005,0.0774 8.4540453,1.28713 12.5926444,4.75241 13.5043444,11.30729 0.656895,4.72291 -0.73929,9.14748 -3.7567441,11.90526 -2.55082207,2.33131 -5.5111831,3.52654 -10.4976003,4.23835 -3.1448825,0.44893 -25.1342675,0.40739 -25.5900005,-0.0483 z m -0.169065,-40.59151 c -0.105015,-0.27366 -0.190935,-5.81428 -0.190935,-12.31248 0,-11.37401 0.02166,-11.82649 0.580278,-12.12546 0.760329,-0.40692 14.765769,-0.40808 20.119722,-0.002 9.6727986,0.73424 13.8231187,2.86103 15.3420848,7.86189 0.970791,3.19612 0.723231,6.59866 -0.694641,9.54733 -1.76749808,3.67576 -4.1091151,5.56724 -8.3474432,6.74277 -1.6937851,0.46979 -3.5706061,0.55691 -14.2840656,0.66302 -11.279688,0.11173 -12.350388,0.0796 -12.525,-0.3754 z m 116.359068,53.54814 c 11.615127,-0.82441 18.807463,-3.83044 25.175393,-10.52205 7.71223,-8.10422 11.11735,-17.79431 11.49274,-32.70537 0.29652,-11.77782 -1.08582,-19.57482 -4.86198,-27.42346 -4.52657,-9.40835 -12.56888,-16.33651 -21.606153,-18.61293 -5.853072,-1.47435 -9.249303,-1.66695 -27.600001,-1.56522 -15.5718,0.0863 -16.907304,0.13425 -18.267777,0.65554 -1.941465,0.74391 -3.551496,2.40659 -4.422783,4.56741 l -0.70944,1.75944 -0.09125,36.3 c -0.0944,37.55392 -0.01365,40.68767 1.112388,43.17696 1.114881,2.46459 3.36294,3.91613 6.749766,4.35821 2.68377,0.35031 28.130593,0.35915 33.029095,0.0115 z M 60.253586,761.11428 c -0.491091,-0.49665 -0.554091,-62.06405 -0.06445,-62.97897 0.295233,-0.55164 0.709107,-0.58028 8.388237,-0.58028 8.960089,0 12.860302,0.31505 17.10121,1.38136 5.502126,1.38343 8.803608,3.73985 11.966658,8.54113 1.962822,2.97943 3.261699,6.46411 4.129029,11.07751 0.68141,3.62455 0.78204,16.56264 0.15632,20.10001 -1.4596,8.25159 -4.067183,13.74228 -8.456069,17.80561 -2.098245,1.94261 -4.351824,3.17909 -7.547349,4.14106 -2.067354,0.62235 -2.888019,0.66872 -13.748589,0.77684 -9.034528,0.0899 -11.631673,0.0324 -11.925001,-0.26427 z M -111.23269,747.74377 c -0.0666,-0.0666 -9.75505,-3.90876 -21.5299,-8.53816 -11.77486,-4.62939 -21.61133,-8.61544 -21.85883,-8.85788 -0.39941,-0.39125 -0.38255,-0.49254 0.15,-0.90105 0.33,-0.25314 10.185,-4.14128 21.9,-8.64031 l 21.3,-8.18006 0.0798,-8.31958 c 0.0635,-6.61535 0.002,-8.2891 -0.3,-8.17077 -0.2089,0.0818 -14.18356,6.13277 -31.05481,13.44651 l -30.675,13.29772 0,7.11972 c 0,5.37164 0.0921,7.17686 0.375,7.35246 0.20625,0.128 14.145,6.20143 30.975,13.4965 l 30.6,13.26376 0.0799,-8.12389 c 0.0439,-4.46814 0.0254,-8.17838 -0.0412,-8.24497 z m 275.31733,3.47035 c 16.35918,-7.11751 30.25263,-13.1965 30.87435,-13.50886 l 1.13043,-0.56794 -0.0804,-7.1015 -0.0804,-7.10151 -30.75,-13.27948 c -16.9125,-7.30371 -30.85341,-13.28405 -30.97983,-13.28964 -0.12639,-0.006 -0.19389,3.64582 -0.15,8.11423 l 0.0798,8.12438 21.6,8.35477 c 12.28821,4.75302 21.72933,8.56533 21.9,8.84319 0.22062,0.35918 0.17049,0.58299 -0.18948,0.84585 -0.26922,0.19658 -10.1547,4.13743 -21.96771,8.75743 l -21.4782,8.4 -0.007,8.175 c -0.004,4.49625 0.0742,8.175 0.17373,8.175 0.0996,0 13.56582,-5.82342 29.925,-12.94092 z m -245.407414,-4.86829 c 1.905537,-0.79619 3.008349,-2.77753 3.779739,-6.79079 0.524316,-2.72783 3.621618,-39.43507 3.621618,-42.92111 0,-7.7802 -1.474896,-12.07839 -4.637589,-13.515 -1.87425,-0.85135 -5.858541,-0.77323 -7.812411,0.15318 -1.865662,0.88458 -3.50935,2.57401 -4.410196,4.53292 -0.65724,1.42919 -0.687672,1.80449 -0.644598,7.95 0.04722,6.7379 2.209803,40.32584 2.810433,43.65001 0.480222,2.65777 1.177525,4.67634 1.992946,5.76924 1.082664,1.45107 3.403347,1.96404 5.300058,1.17155 z"
         id="path4187"
         inkscape:connector-curvature="0" />
      <path
         style="fill:#d0d0d0"
         d="m 0.92858473,927.17249 c -0.33,-0.0554 -3.36750013,-0.23646 -6.75000013,-0.40227 -16.5884496,-0.81315 -37.6823886,-5.70246 -55.9181686,-12.9612 -8.137314,-3.23904 -19.016766,-8.53806 -26.431834,-12.87405 -52.449392,-30.66999 -87.808552,-82.93699 -96.592072,-142.77993 -1.08329,-7.38059 -1.50793,-15.44856 -1.50793,-28.65 0,-13.17204 0.42344,-21.24616 1.50253,-28.65001 8.44975,-57.97532 42.19425,-109.22539 92.315971,-140.20656 22.860622,-14.13057 48.52562,-23.44279 75.381503,-27.35121 12.9503586,-1.88471 38.297764,-2.14997 52.650002,-0.55097 19.67286,2.19176 41.167417,8.36138 60.000001,17.22188 56.856243,26.75018 97.995303,79.14734 110.223213,140.38686 2.6151,13.09697 3.32649,21.46925 3.32649,39.15001 0,13.20315 -0.42453,21.27076 -1.50762,28.65 -4.24707,28.93563 -14.49705,55.80701 -30.66828,80.4 -27.3051,41.52522 -69.61116,71.47257 -117.823804,83.40438 -11.684541,2.89173 -22.407096,4.49067 -34.050001,5.07753 -5.806692,0.29268 -22.6522772,0.38724 -24.15000027,0.13554 z M -78.670072,775.90279 c 1.776255,-0.85987 3.478914,-2.56468 4.24239,-4.24775 0.949572,-2.09333 0.876486,-5.67982 -0.155892,-7.65 -1.748682,-3.33717 -4.6413,-5.09918 -8.337843,-5.07891 -2.740746,0.015 -4.48716,0.71607 -6.300001,2.52891 -1.875792,1.87579 -2.540109,3.55908 -2.545515,6.45 -0.0038,2.02742 0.126054,2.66582 0.836403,4.11237 0.977358,1.99029 2.612886,3.41497 4.830181,4.20751 2.073051,0.74098 5.545134,0.59046 7.430277,-0.32213 z m 80.7986568,-1.34637 c 7.8616802,-1.39595 12.3393722,-3.59773 16.6044782,-8.16476 2.35614,-2.52294 4.707732,-6.77652 5.63166,-10.18662 0.752877,-2.77877 0.897909,-9.18102 0.273123,-12.05659 -1.611567,-7.41722 -6.895065,-12.99397 -15.3005881,-16.14981 -0.99477,-0.37348 -1.850124,-0.88467 -1.900788,-1.13598 -0.06081,-0.30165 0.614877,-0.82843 1.988298,-1.55015 5.4190771,-2.84764 9.1931281,-7.43852 10.7342401,-13.05748 0.728058,-2.65452 0.740229,-8.41187 0.02346,-11.1 -1.659498,-6.22373 -5.918385,-11.39316 -11.7538831,-14.26685 -5.7729001,-2.84286 -7.2541982,-2.98315 -31.5000009,-2.98315 -18.544665,0 -20.235954,0.042 -21.856956,0.54267 -2.293014,0.70825 -4.314694,2.67335 -5.151481,5.00733 -0.574821,1.6033 -0.594048,2.70288 -0.679341,38.85 -0.0607,25.72729 0.01257,37.8014 0.237603,39.15001 0.420654,2.52098 1.581,4.90229 2.866528,5.88281 0.560883,0.4278 1.799154,1.0315 2.751717,1.34154 1.641516,0.53429 2.843868,0.55831 23.03193,0.46009 17.8558296,-0.0869 21.73658471,-0.18116 24.0000008,-0.58306 z M -32.684073,761.68004 c -0.0791,-0.20625 -0.108615,-6.3825 -0.06558,-13.725 l 0.07824,-13.35 13.2,0 c 12.7089935,0 13.2934356,0.0249 15.7118346,0.66987 4.68432613,1.24924 7.5361562,3.08412 9.1962932,5.91693 1.4128501,2.41084 1.9693981,6.45427 1.3430101,9.7572 -1.098408,5.79189 -5.3220212,9.40439 -12.4481973,10.64709 -3.5054401,0.6113 -26.7855936,0.6836 -27.0155976,0.0839 z m 0.230733,-40.19298 c -0.289197,-0.34846 -0.357069,-3.19035 -0.296553,-12.41695 l 0.07848,-11.96508 8.85,-0.0892 c 17.6767776,-0.17811 23.76405071,1.36278 26.1391358,6.61667 0.621189,1.37412 0.710865,2.02744 0.710865,5.1788 0,3.46641 -0.038031,3.68356 -0.98031,5.59761 -1.35460207,2.75158 -3.8858491,5.07473 -6.4301432,5.90149 -3.4520611,1.12174 -5.3641711,1.29001 -16.5929946,1.46021 -9.663477,0.14647 -11.152083,0.10969 -11.478477,-0.28359 z m 119.095161,53.43559 c 9.007056,-0.96987 15.688149,-3.99568 21.417899,-9.69996 6.58243,-6.55318 9.97423,-13.80911 11.71789,-25.06765 0.74802,-4.82988 0.75156,-16.45864 0.007,-21.23062 -1.82421,-11.68306 -6.26731,-20.55261 -13.34077,-26.63153 -6.0339,-5.18553 -11.869814,-7.3913 -21.814733,-8.24519 -2.451342,-0.21048 -9.694632,-0.29893 -19.500001,-0.23812 -15.594267,0.0967 -15.600648,0.097 -17.35944,0.80554 -2.448066,0.98621 -3.893025,2.52322 -4.745178,5.04747 l -0.689499,2.04244 -0.09574,34.8 c -0.09713,35.30599 0.03093,40.93212 0.993762,43.66108 0.802542,2.27464 3.03594,4.11922 5.766435,4.76251 1.687719,0.39762 33.942331,0.39251 37.642894,-0.006 z M 60.683465,761.08004 c -0.474951,-0.34937 -0.504504,-2.51783 -0.432339,-31.72501 l 0.07746,-31.35 8.55,-0.0911 c 11.68543,-0.12452 16.555372,0.51989 21.226291,2.80874 4.75545,2.33027 8.636853,7.34534 10.403703,13.44237 1.22204,4.21699 1.70728,8.43966 1.71106,14.89 0.008,13.05833 -2.735668,21.49728 -8.846623,27.21378 -3.449529,3.22686 -7.046289,4.501 -13.84443,4.90432 -6.817431,0.40447 -18.245455,0.34801 -18.845122,-0.0931 z m -171.575215,-5.07531 -0.0797,-8.45031 -15.3,-6.02481 c -8.415,-3.31364 -18.16875,-7.15277 -21.675,-8.53139 -7.57006,-2.97648 -7.67911,-3.10333 -3.9,-4.53673 1.36125,-0.51632 11.115,-4.2729 21.675,-8.34796 l 19.2,-7.40919 0.0797,-8.50856 c 0.0752,-8.02537 0.0496,-8.49736 -0.45,-8.3112 -0.29135,0.10856 -14.33191,6.16507 -31.20125,13.45891 l -30.67151,13.26154 0.0715,7.47212 0.0715,7.47212 30.9,13.42478 c 16.995,7.38363 31.00335,13.43743 31.12967,13.45288 0.12632,0.0154 0.19382,-3.77453 0.15,-8.4222 z m 275.93993,-4.99421 30.88041,-13.44452 0,-7.4275 0,-7.42751 -30.88863,-13.32798 c -16.98873,-7.33038 -30.99711,-13.32798 -31.12974,-13.32798 -0.1326,0 -0.20523,3.74442 -0.16137,8.32092 l 0.0797,8.32091 21.75,8.41449 c 17.75439,6.86869 21.75,8.51482 21.75,8.96066 0,0.44471 -4.05486,2.13832 -21.825,9.11574 l -21.825,8.56956 0,8.34886 c 0,4.59188 0.11007,8.34887 0.24459,8.34887 0.13452,0 14.14077,-6.05004 31.125,-13.44452 z m -246.695461,-4.25139 c 1.073766,-0.008 2.859624,-2.05043 3.49593,-3.99741 0.927429,-2.83779 1.119957,-4.46028 2.729994,-23.00669 1.80651,-20.80962 1.963692,-23.60498 1.536885,-27.33222 -0.697566,-6.09177 -2.209518,-8.83605 -5.375205,-9.75634 -2.121735,-0.61681 -5.403801,-0.43699 -7.26174,0.39786 -1.845715,0.82935 -3.766279,2.8759 -4.575706,4.87587 -0.621984,1.53683 -0.669987,2.09156 -0.624306,7.21483 0.06998,7.84938 2.37222,41.4183 3.07821,44.88339 0.949203,4.65882 1.898869,6.14408 4.304317,6.73189 0.532116,0.13003 1.237485,0.18163 1.567485,0.11467 0.33,-0.067 0.83586,-0.1236 1.124136,-0.12585 z"
         id="path4185"
         inkscape:connector-curvature="0" />
      <path
         style="fill:#afafaf"
         d="m -2.5214154,927.00248 c -29.2315026,-1.61685 -60.8717386,-11.44146 -86.8282526,-26.96106 -22.929452,-13.7097 -42.324272,-31.12905 -57.937622,-52.03638 -20.21481,-27.06899 -33.09727,-58.55315 -37.62343,-91.95 -1.86938,-13.79352 -1.94327,-38.41314 -0.15621,-52.05001 5.01139,-38.24129 20.86071,-73.85695 45.92502,-103.2 6.5726,-7.69461 15.71172,-16.73573 23.53065,-23.27833 28.662961,-23.98415 63.450958,-39.34122 100.489844,-44.36097 13.7935177,-1.86938 38.413135,-1.94327 52.050002,-0.15621 34.085845,4.46683 65.959024,17.47004 93.450004,38.12454 2.8875,2.16944 7.275,5.66966 9.75,7.77827 5.77164,4.91724 16.96368,16.10804 21.89511,21.8927 21.87216,25.65643 36.93849,56.51323 43.50447,89.1 2.72661,13.532 3.75042,24.34236 3.75042,39.60001 0,15.25764 -1.02381,26.068 -3.75042,39.6 -5.7174,28.37524 -17.84121,55.40942 -35.38371,78.9 -11.41611,15.28692 -25.57479,29.38602 -40.93317,40.76091 -30.833505,22.83621 -67.496137,36.19914 -105.032705,38.2827 -6.374331,0.35382 -19.8911102,0.33045 -26.7000004,-0.0462 z M -78.818716,776.16033 c 3.46107,-1.52464 5.334201,-4.6959 5.141862,-8.70529 -0.235416,-4.90736 -3.599508,-8.31228 -8.530851,-8.6344 -2.823288,-0.18441 -4.721613,0.4503 -6.719722,2.24677 -2.376921,2.13705 -2.843991,3.26001 -2.843991,6.83763 0,3.33521 0.447975,4.60182 2.273076,6.42692 2.558902,2.5589 7.212634,3.35563 10.679626,1.82837 z m 79.10926972,-1.1922 c 3.26339708,-0.43075 7.59557418,-1.50955 10.06102528,-2.50539 6.931167,-2.79962 12.144594,-8.7945 14.170242,-16.29426 0.849348,-3.14461 0.937053,-9.79449 0.167679,-12.71344 -1.91298,-7.25772 -7.199097,-12.59833 -15.5859151,-15.7466 -0.78375,-0.2942 -1.425,-0.69222 -1.425,-0.88447 0,-0.19226 0.97875,-0.91049 2.1750001,-1.59608 7.382277,-4.23088 11.033793,-10.35965 11.019792,-18.49584 -0.0068,-3.96972 -0.589221,-6.57121 -2.222856,-9.92934 -2.696184,-5.54233 -7.956357,-9.89239 -14.1335072,-11.68813 -4.10011208,-1.19194 -7.2947102,-1.3476 -27.7818278,-1.35369 -19.076349,-0.006 -19.756395,0.0136 -21.703866,0.61511 -2.428443,0.75007 -4.268293,2.41723 -5.13088,4.64928 -0.549876,1.42287 -0.57543,2.94428 -0.664839,39.57975 -0.06935,28.41771 -0.0032,38.51932 0.260511,39.75001 0.862104,4.02404 2.68201,5.86376 6.69304,6.76591 2.376519,0.53451 39.8786706,0.40457 44.10140172,-0.15282 z M -32.461416,761.69504 c -0.517872,-0.51788 -0.517872,-26.36213 0,-26.88 0.266877,-0.26688 3.198417,-0.36 11.332869,-0.36 13.8369065,0 17.3323026,0.39691 21.45713172,2.43655 4.76999108,2.35865 6.66364818,5.92805 6.39148818,12.04746 -0.118602,2.6667 -0.269004,3.39507 -1.041027,5.04151 -2.1073291,4.49413 -6.39893721,6.94792 -13.6004614,7.77625 -3.8391245,0.44158 -24.0876185,0.39061 -24.5400005,-0.0618 z m 0,-40.50001 c -0.425889,-0.42588 -0.518811,-22.92498 -0.09743,-23.58971 0.411186,-0.64864 22.7994275,-0.32 25.8116375,0.37889 4.7600582,1.10444 7.42813523,2.71412 8.7141153,5.25734 1.940967,3.83855 1.452294,9.30401 -1.15777207,12.94893 -2.03554803,2.84261 -4.62657013,4.22241 -9.23261423,4.91668 -3.8453075,0.5796 -23.4744575,0.65136 -24.0379385,0.0879 z M 88.62522,774.83462 c 6.584508,-1.08778 11.82885,-3.18189 16.18066,-6.46108 7.65444,-5.76779 12.76442,-14.796 14.78312,-26.1185 0.94731,-5.31337 1.17273,-16.52445 0.44715,-22.23896 -0.9237,-7.27475 -2.92359,-13.5984 -5.86416,-18.54233 -2.06147,-3.46594 -3.47182,-5.22676 -6.60778,-8.24984 -4.55928,-4.39516 -8.91005,-6.77313 -14.846375,-8.1145 -5.584017,-1.26175 -8.481117,-1.40292 -26.689249,-1.30053 l -17.1,0.0961 -1.568115,0.70898 c -2.010093,0.90882 -3.747441,2.80136 -4.465713,4.86465 -0.543477,1.56118 -0.566172,3.16567 -0.566172,40.02638 0,36.05085 0.03285,38.50628 0.536985,40.1374 0.938664,3.03702 3.318969,4.969 6.890868,5.593 0.866925,0.15145 9.242751,0.23789 18.672147,0.1927 14.429236,-0.0692 17.583649,-0.16185 20.196634,-0.59352 z M 60.627404,760.80747 c -0.08438,-0.22134 -0.118626,-14.44243 -0.07611,-31.60244 l 0.07729,-31.2 7.05,-0.0913 c 8.267827,-0.10712 13.426339,0.27085 17.64805,1.29309 4.234614,1.02536 6.338193,2.16421 9.076791,4.91406 5.605265,5.62829 7.571875,12.03811 7.604085,24.78418 0.0243,9.60559 -0.91323,14.73032 -3.731934,20.40001 -2.944584,5.92289 -6.753882,9.24215 -12.596991,10.97649 -2.110326,0.62638 -2.952954,0.67592 -13.573887,0.79811 -9.284887,0.10682 -11.351509,0.0578 -11.477296,-0.27217 z m 104.421346,-9.62984 31.17984,-13.5774 0,-7.4617 0,-7.46169 -31.16739,-13.45241 c -17.14206,-7.39882 -31.28331,-13.38076 -31.425,-13.2932 -0.43329,0.26779 -0.32439,16.54711 0.11247,16.81712 0.20355,0.1258 10.0248,3.96562 21.825,8.53294 20.4264,7.90613 22.54011,8.83677 21.24465,9.35379 -0.21435,0.0856 -9.90573,3.89277 -21.5364,8.46049 -11.63064,4.56772 -21.31689,8.44624 -21.525,8.61894 -0.60099,0.4988 -0.53613,17.04053 0.0668,17.04053 0.0249,0 14.07609,-6.10984 31.22499,-13.57741 z m -275.6405,4.80241 -0.0797,-8.475 -21.75,-8.56614 c -14.47333,-5.70024 -21.75,-8.70771 -21.75,-8.98934 0,-0.28323 7.09466,-3.15834 21.45,-8.69259 11.7975,-4.54816 21.61875,-8.37467 21.825,-8.50336 0.28544,-0.1781 0.375,-2.2317 0.375,-8.59858 0,-4.60052 -0.10178,-8.42749 -0.22617,-8.50437 -0.24945,-0.15417 -62.03599,26.54654 -62.49732,27.00787 -0.17205,0.17204 -0.25513,3.22631 -0.20697,7.60855 l 0.0805,7.32113 30.9,13.41435 c 16.995,7.37788 31.13835,13.42292 31.42967,13.43341 0.49599,0.0178 0.52461,-0.51988 0.45,-8.45593 z m 29.375803,-9.24409 c 1.988979,-0.75149 3.262242,-2.91383 3.973371,-6.74783 0.66156,-3.56676 3.620301,-39.20364 3.61017,-43.48309 -0.01698,-7.17283 -1.141533,-11.24257 -3.598308,-13.02224 -1.509309,-1.09334 -2.735283,-1.3895 -5.557536,-1.34252 -3.647601,0.0607 -6.543427,1.89665 -8.149234,5.1666 l -0.833934,1.69816 0.03191,6.9 c 0.03089,6.68042 1.796526,35.64613 2.532723,41.55001 0.409851,3.28676 1.070412,5.85077 1.885918,7.32031 1.054386,1.90001 3.871089,2.8046 6.104922,1.9606 z"
         id="path4183"
         inkscape:connector-curvature="0" />
      <path
         style="fill:#8f8f8f"
         d="M -2.5214154,926.90135 C -75.544906,922.20395 -140.95788,875.86694 -170.32954,808.03007 c -20.07127,-46.35668 -21.49933,-100.10825 -3.91319,-147.29074 12.1897,-32.70418 32.26006,-61.00966 59.21963,-83.5182 29.655996,-24.75979 66.811608,-40.50413 105.001684,-44.49347 13.4421518,-1.40417 29.694553,-1.40684 42.900002,-0.007 55.767331,5.91142 106.655884,35.69877 139.634614,81.73441 21.47259,29.974 34.04247,65.16853 36.32256,101.7 1.77255,28.39952 -1.89105,54.80947 -11.17401,80.55001 -17.17815,47.63304 -52.34769,87.1722 -97.733163,109.87596 -31.794208,15.90483 -65.90767,22.67103 -102.4500024,20.32035 z M -79.695466,776.59923 c 2.215824,-0.65802 4.337865,-2.45165 5.351355,-4.52315 1.133391,-2.31657 1.199562,-5.83142 0.150456,-7.99191 -2.934999,-6.04424 -11.123253,-7.40955 -15.484729,-2.58192 -1.780908,1.97125 -2.390004,3.61276 -2.375814,6.40279 0.01818,3.57221 1.296546,6.0484 3.980034,7.70923 2.306263,1.42736 5.589355,1.81331 8.378698,0.98496 z m 81.8240508,-1.74281 c 9.7411622,-1.72968 15.6452162,-5.36187 19.7802362,-12.16885 2.329854,-3.83536 3.470862,-8.22055 3.467661,-13.32715 -0.0065,-10.4296 -5.339823,-17.65906 -15.9728971,-21.65181 -0.78375,-0.2943 -1.425,-0.68633 -1.425,-0.87119 0,-0.18485 1.04625,-0.94276 2.3250001,-1.68424 3.354636,-1.94518 7.122735,-5.78274 8.540694,-8.69815 4.900455,-10.07559 1.629855,-22.18351 -7.642917,-28.29447 -6.6096332,-4.35589 -10.0497723,-4.79318 -36.522778,-4.64254 -16.074555,0.0915 -18.32196,0.1613 -19.653816,0.61063 -2.761569,0.93168 -4.532605,2.70085 -5.478331,5.47257 -0.471327,1.38135 -0.520203,4.52106 -0.600192,38.55381 -0.05894,25.07613 0.0159,37.71745 0.231588,39.11522 0.662601,4.29413 2.39559,6.57516 5.840125,7.68698 1.737993,0.56099 2.66508,0.5803 23.110626,0.48152 17.8582116,-0.0863 21.73628471,-0.18037 24.0000008,-0.58233 z m -34.6500008,-26.60138 0,-13.5 12.110703,0 c 13.1050025,0 15.4049106,0.19587 19.2372457,1.63836 3.8087191,1.43359 6.1593781,3.72034 7.2590252,7.06164 0.80235,2.43795 0.71637,7.36793 -0.168183,9.64344 -1.3024021,3.35043 -3.5319901,5.52805 -7.1625872,6.99563 -3.5953771,1.45334 -5.9907032,1.66093 -19.1655007,1.66093 l -12.110703,0 0,-13.5 z m 0.371469,-26.92518 c -0.296133,-0.207 -0.361437,-2.83982 -0.3,-12.09471 l 0.07853,-11.83012 11.1,0.024 c 10.304886,0.0222 11.3256425,0.0721 14.2500005,0.69574 6.7742222,1.44469 9.3284883,3.77308 9.8581893,8.98641 0.732738,7.21166 -2.99781609,12.24587 -10.1581893,13.708 -2.587443,0.52834 -24.1682735,0.97227 -24.8285315,0.51072 z M 86.51541,775.24079 c 11.095851,-1.19692 19.37701,-5.76677 25.55897,-14.10438 5.42797,-7.32071 8.15176,-16.48006 8.60356,-28.93137 0.69033,-19.02565 -4.83471,-33.32557 -16.1786,-41.87344 -4.28791,-3.23104 -9.133675,-5.11873 -15.891328,-6.19056 -2.968344,-0.4708 -5.550744,-0.53601 -21.229426,-0.53601 l -17.85,0 -1.749588,0.70576 c -3.622239,1.46115 -5.088789,3.70638 -5.613627,8.59424 -0.217791,2.02832 -0.285126,14.51444 -0.207888,38.55001 0.124431,38.72175 0.08553,37.85562 1.817862,40.47335 0.4446,0.67184 1.31346,1.55493 1.930803,1.96244 2.37684,1.56893 3.074265,1.62313 21.159261,1.64446 9.759556,0.0115 17.951275,-0.11126 19.650001,-0.2945 z M 60.850643,760.79186 c -0.295599,-0.35617 -0.358713,-7.01095 -0.298464,-31.46926 l 0.07641,-31.01757 8.4,-0.0911 c 4.958863,-0.0538 9.567529,0.0471 11.250001,0.24632 8.693577,1.02944 13.203333,3.50494 17.011005,9.33771 2.751005,4.21412 4.146155,9.44827 4.575935,17.16739 0.98135,17.62555 -3.692084,29.6651 -13.225154,34.07024 -3.433122,1.58641 -5.661354,1.85266 -17.063322,2.03891 -8.992684,0.14689 -10.400746,0.1098 -10.726408,-0.2826 z m -171.372063,-4.70618 0,-8.66936 -7.275,-2.86609 c -4.00125,-1.57635 -13.755,-5.419 -21.675,-8.53924 -8.76122,-3.45165 -14.4,-5.8267 -14.4,-6.06526 0,-0.24216 8.25996,-3.57263 21.6,-8.70927 l 21.6,-8.31718 0.0796,-8.76579 0.0796,-8.7658 -0.67958,0.17492 c -0.37377,0.0962 -14.51709,6.17421 -31.42959,13.50669 l -30.75,13.33177 -0.08,7.63512 -0.08,7.63511 31.12998,13.51749 c 17.12149,7.43462 31.29873,13.52847 31.50498,13.54187 0.29191,0.019 0.375,-1.8965 0.375,-8.64498 z m 275.44165,-4.71043 c 16.88961,-7.35888 30.87711,-13.44832 31.08336,-13.5321 0.28605,-0.11618 0.375,-1.94492 0.375,-7.70919 l 0,-7.55688 -31.125,-13.41492 c -17.11875,-7.3782 -31.29375,-13.41316 -31.5,-13.41102 -0.29112,0.003 -0.375,1.91109 -0.375,8.5295 l 0,8.52561 5.325,2.0804 c 2.92875,1.14422 12.615,4.89059 21.525,8.32526 8.91,3.43468 16.39062,6.41741 16.62357,6.62829 0.35859,0.32459 0.30657,0.43675 -0.33903,0.7309 -0.41946,0.19112 -10.26255,4.07943 -21.8736,8.64071 l -21.11094,8.29323 -0.0796,8.625 c -0.0668,7.24281 -0.012,8.625 0.34164,8.625 0.23169,0 14.24001,-6.02091 31.12959,-13.37979 z m -245.390299,-4.80801 c 1.611342,-0.81065 2.867883,-3.48729 3.50901,-7.47478 0.184593,-1.14809 1.031205,-9.91743 1.88136,-19.48743 1.821984,-20.50965 2.004285,-26.79681 0.895968,-30.9 -0.883905,-3.27237 -1.924686,-4.87758 -3.782355,-5.83357 -1.290375,-0.66405 -1.871082,-0.76643 -4.347324,-0.76643 -2.525568,0 -3.057759,0.0981 -4.575282,0.84329 -2.049934,1.00664 -3.581995,2.7012 -4.505074,4.98291 -0.626028,1.54745 -0.673413,2.09278 -0.627663,7.2238 0.07102,7.96529 2.372457,41.41951 3.092511,44.95339 0.648975,3.18506 1.596478,5.30359 2.744341,6.13611 1.488996,1.07993 3.934833,1.21805 5.714508,0.32271 z"
         id="path4181"
         inkscape:connector-curvature="0" />
      <path
         style="fill:#6f6f6f"
         d="m 2.7285848,927.1586 c -10.2845943,-0.60546 -17.3527598,-1.38171 -25.5000008,-2.80053 -53.057044,-9.2397 -100.316144,-40.0713 -130.370474,-85.05303 -16.48284,-24.66955 -27.10708,-52.50617 -31.31555,-82.05 -1.42927,-10.03356 -1.77897,-15.48852 -1.77897,-27.75 0,-12.26149 0.3497,-17.71645 1.77897,-27.75001 5.95511,-41.80544 24.66083,-79.90155 54.08128,-110.14207 31.536001,-32.41504 72.92108,-52.99569 117.504744,-58.43468 9.4097946,-1.14795 13.34219772,-1.3635 24.600001,-1.34837 11.92005,0.016 17.411736,0.37503 27.600001,1.80435 52.068049,7.30463 99.272524,35.40904 130.960624,77.97077 10.30629,13.84283 19.32684,30.15479 25.63167,46.35 13.6563,35.07892 16.90323,74.1413 9.27639,111.60001 -6.27966,30.84215 -20.54811,60.71796 -40.7625,85.35 -26.72721,32.56815 -63.37865,55.94904 -103.892209,66.27552 -16.378587,4.17471 -33.367396,6.25272 -50.013976,6.11751 -3.4650001,-0.0282 -6.9750002,-0.0909 -7.8000002,-0.13947 z M -79.192009,776.54705 c 2.267481,-0.73014 4.770129,-3.31911 5.432157,-5.61953 1.791489,-6.22507 -2.220243,-12.03612 -8.561565,-12.40154 -2.894685,-0.16681 -5.112657,0.61174 -7.017877,2.4634 -2.242584,2.17955 -2.732124,3.41868 -2.732124,6.91566 0,2.76075 0.07055,3.12736 0.884688,4.59706 2.241921,4.04719 7.002304,5.65252 11.994721,4.04495 z m 75.0205936,-1.00394 c 11.6888223,-0.78613 17.8691794,-3.13371 23.1710314,-8.8014 6.855564,-7.32862 8.612157,-19.5117 4.062369,-28.17511 -1.318416,-2.51044 -4.281765,-5.78064 -6.768453,-7.46932 -1.521885,-1.03349 -4.886391,-2.73782 -7.5068641,-3.80268 -1.060941,-0.43112 -0.914259,-0.65422 1.2169261,-1.85089 5.092095,-2.85924 8.416686,-6.73913 10.144308,-11.83868 0.645234,-1.90458 0.843369,-3.14503 0.959847,-6.00928 0.177984,-4.37663 -0.439656,-7.29921 -2.375538,-11.24072 -1.028316,-2.09367 -1.767024,-3.06474 -4.128033,-5.42646 -2.453706,-2.45444 -3.293727,-3.08208 -5.7255931,-4.27797 -6.1751881,-3.03669 -8.56970118,-3.26119 -33.4500009,-3.13615 -22.190274,0.11151 -21.245253,0.007 -23.871241,2.63325 -2.727858,2.72786 -2.52876,-0.68582 -2.52876,43.35734 0,36.54405 0.03019,38.78653 0.541917,40.25334 1.159467,3.32348 3.417427,5.15205 7.108084,5.75635 2.292417,0.37535 33.6528515,0.39809 39.1500006,0.0284 z M -32.384109,761.38004 c -0.07912,-0.20625 -0.108636,-6.2475 -0.06558,-13.425 l 0.07828,-13.05 10.95,-0.0891 c 11.029602,-0.0897 14.7650375,0.11569 18.1396446,0.99748 4.8364082,1.26376 8.0618672,3.95727 9.1912083,7.67538 0.523881,1.72477 0.61374,2.6508 0.51459,5.30294 -0.102186,2.7333 -0.24708,3.49209 -0.9700351,5.07998 -0.935136,2.0539 -3.177006,4.41276 -5.15105108,5.41984 -1.80257702,0.91961 -5.09432712,1.81644 -7.91648722,2.15683 -3.8534615,0.46478 -24.5879825,0.40754 -24.7705625,-0.0684 z m 0.0088,-40.47699 c -0.0844,-0.21995 -0.11805,-5.52948 -0.07478,-11.79896 l 0.07868,-11.39906 11.55,0 c 9.730179,0 11.9061155,0.0796 13.8101825,0.50496 5.1308072,1.1463 7.70253323,2.77455 9.0166593,5.70874 0.606489,1.35418 0.711378,2.07012 0.716805,4.89261 0.006,3.1193 -0.047862,3.41625 -0.952143,5.25 -1.71824709,3.48436 -4.1828761,5.42119 -8.2607553,6.49171 -2.582463,0.67795 -25.6391705,0.9897 -25.8846515,0.35 z M 84.19362,775.53834 c 11.22303,-0.88088 18.56033,-4.01616 24.81969,-10.60564 6.50073,-6.84357 10.20951,-15.57158 11.44794,-26.94084 0.40089,-3.68022 0.40701,-13.34023 0.0108,-16.88683 -1.30035,-11.63722 -5.31117,-20.77987 -12.05465,-27.47854 -4.49353,-4.46359 -9.312352,-7.24192 -14.958925,-8.62464 -5.409261,-1.3246 -6.757929,-1.39682 -26.086084,-1.39682 l -18.456195,0 -1.999794,0.98444 c -2.259951,1.11251 -3.539211,2.57954 -4.371522,5.01319 -0.472125,1.38048 -0.521016,4.48404 -0.602571,38.25237 -0.09043,37.44263 -0.02169,40.29337 1.035309,42.93507 0.7368,1.84144 3.031764,3.7037 5.269377,4.27587 1.034874,0.26462 2.219091,0.53203 2.631591,0.59424 1.777026,0.26801 29.64652,0.16606 33.315034,-0.12187 z M 60.660683,760.3805 c -0.237996,-0.62021 -0.237996,-61.13072 0,-61.75093 0.15957,-0.41583 1.144476,-0.47454 7.961823,-0.47454 14.50123,0 20.550202,1.33392 25.084132,5.53154 4.579683,4.23998 6.990192,9.94258 7.889382,18.66412 0.4528,4.39177 0.21557,13.33025 -0.45262,17.05435 -1.162112,6.47694 -3.466775,11.68256 -6.735881,15.21453 -2.321613,2.50829 -4.176102,3.76623 -7.110996,4.82352 -3.287088,1.18417 -5.96625,1.41195 -16.607548,1.41195 -8.701695,0 -9.867363,-0.0552 -10.028292,-0.47454 z m 104.500087,-8.95024 c 16.90272,-7.36818 30.90897,-13.54339 31.125,-13.72269 0.5559,-0.46135 0.57267,-14.73672 0.0177,-15.1759 -0.20625,-0.16326 -14.39472,-6.34222 -31.52991,-13.73103 -24.89022,-10.7328 -31.20831,-13.34987 -31.42041,-13.01489 -0.43764,0.69116 -0.345,16.25983 0.10032,16.86008 0.20625,0.27802 9.80838,4.15574 21.3381,8.61717 11.52969,4.46143 21.23043,8.25478 21.55719,8.42966 0.32922,0.17618 0.47943,0.43199 0.33693,0.5737 -0.14148,0.14066 -9.90015,4.04058 -21.68598,8.66649 -11.78583,4.62591 -21.53751,8.58207 -21.67041,8.79147 -0.28449,0.44821 -0.33978,16.14981 -0.0595,16.88035 0.10707,0.27904 0.4044,0.43783 0.675,0.36049 0.26601,-0.076 14.31312,-6.16672 31.21581,-13.5349 z m -275.45255,4.91345 c 0.0607,-6.301 -0.0104,-8.3801 -0.3,-8.76187 -0.2088,-0.27531 -9.96464,-4.26914 -21.67964,-8.87518 -12.59458,-4.95188 -21.3,-8.53007 -21.3,-8.75494 0,-0.22647 8.61602,-3.69915 21.3,-8.58494 11.81382,-4.5506 21.46701,-8.43215 21.675,-8.71552 0.43417,-0.59151 0.54367,-16.46583 0.11821,-17.13659 -0.18798,-0.29635 -7.6798,2.83002 -31.10781,12.98139 -16.97312,7.35446 -31.16963,13.57449 -31.54781,13.82228 -0.68585,0.44938 -0.68759,0.46916 -0.68759,7.80756 l 0,7.35704 0.825,0.46308 c 2.11923,1.18953 61.49753,26.76491 62.025,26.71537 0.58199,-0.0547 0.60239,-0.3044 0.67964,-8.31768 z m 29.075833,-9.30776 c 2.061126,-0.77875 3.268032,-2.7158 4.117428,-6.60837 0.659739,-3.02341 3.777102,-39.23233 3.777102,-43.87193 0,-5.89845 -1.051377,-10.59574 -2.784537,-12.4406 -2.327703,-2.47773 -7.485879,-3.06068 -11.039715,-1.24764 -1.906489,0.97261 -3.797722,3.3876 -4.52308,5.77567 -0.600609,1.97738 -0.631065,2.53169 -0.455508,8.29051 0.103473,3.39429 0.731802,14.06894 1.396287,23.72144 1.265154,18.37798 1.667226,21.52996 3.074655,24.10325 1.149154,2.10107 4.121392,3.15271 6.437368,2.27767 z"
         id="path4179"
         inkscape:connector-curvature="0" />
      <path
         style="fill:#4f4f4f"
         d="m 2.8785848,927.16643 c -4.5057271,-0.23001 -15.5732918,-1.35843 -20.5135148,-2.09157 -20.660181,-3.06591 -39.971266,-9.13983 -58.686487,-18.45867 -8.730486,-4.34715 -13.875604,-7.29126 -21.150001,-12.10239 -11.438492,-7.56513 -21.164822,-15.52671 -31.032602,-25.40202 -30.2915,-30.31464 -49.66299,-69.04554 -55.79576,-111.55674 -1.49056,-10.33235 -1.93276,-16.7574 -1.93051,-28.05 0.002,-10.84362 0.23099,-14.65434 1.48621,-24.75001 6.78803,-54.59597 36.39702,-104.11818 81.48716,-136.29047 25.752654,-18.3748 55.159296,-30.14896 86.635504,-34.6881 10.3368306,-1.49066 16.75811171,-1.93255 28.050001,-1.9303 10.843611,0.002 14.654331,0.23099 24.750001,1.48621 49.320298,6.13209 94.649584,30.88134 126.823804,69.24426 23.45217,27.96321 38.65167,61.76334 43.99224,97.8284 1.59615,10.77895 2.09907,17.75093 2.09907,29.10001 0,11.34907 -0.50292,18.32105 -2.09907,29.1 -4.22031,28.50004 -14.66013,55.7635 -30.55728,79.8 -36.30282,54.88995 -96.956874,88.0032 -162.608765,88.77408 -4.7850001,0.0562 -9.7125002,0.0505 -10.9500002,-0.0126 z M -78.571417,776.43358 c 3.50076,-1.65559 5.345436,-4.69189 5.31999,-8.75661 -0.05053,-8.07131 -9.912384,-12.36127 -15.945952,-6.93657 -2.223582,1.99918 -3.145527,4.09687 -3.138216,7.14031 0.0088,3.66087 1.392354,6.25327 4.299345,8.05577 2.53738,1.57332 6.724201,1.79322 9.464833,0.4971 z m 76.5000017,-0.89641 c 12.8380233,-1.11148 20.3933103,-5.38781 24.8853573,-14.08524 2.158308,-4.17889 2.697318,-6.53875 2.705913,-11.84689 0.0085,-5.23182 -0.36423,-7.01271 -2.289465,-10.93985 -2.168823,-4.42401 -6.38124,-8.03356 -12.458451,-10.67542 -1.288845,-0.56029 -2.3268781,-1.11817 -2.3067391,-1.23974 0.02013,-0.12157 0.965139,-0.78436 2.1000001,-1.47287 2.799897,-1.69867 5.958663,-4.6642 7.479699,-7.02213 4.60431,-7.13765 4.371585,-17.06062 -0.569913,-24.3 -2.986725,-4.3756 -7.973112,-7.89262 -13.1566472,-9.2797 -4.6395931,-1.24153 -7.2555992,-1.3703 -27.8397548,-1.3703 -18.216378,0 -19.770381,0.0399 -21.3,0.54731 -3.172045,1.05216 -4.804255,2.69473 -5.89675,5.93417 -0.513855,1.52367 -0.551127,3.75471 -0.635952,38.06852 -0.05728,23.16999 0.01983,37.35533 0.211629,38.93488 0.60309,4.96665 2.554545,7.4887 6.645484,8.58859 1.337649,0.35964 4.920216,0.44 20.225589,0.4537 10.512882,0.009 20.1652506,-0.11887 22.2000007,-0.29503 z M -31.849611,761.50576 c -0.296844,-0.18844 -0.361374,-3.07517 -0.3,-13.4204 l 0.0782,-13.18032 12,0.0163 c 10.2007985,0.0139 12.4018595,0.0956 14.6802426,0.54502 6.6318661,1.30825 10.1946272,4.03372 11.4076113,8.7267 1.169709,4.52556 -0.076983,10.27742 -2.7871351,12.85897 -2.65052107,2.52475 -6.8563052,3.96532 -12.8589423,4.40445 -4.6991375,0.34377 -21.6966875,0.38147 -22.2199715,0.0493 z m -0.146805,-40.42146 c -0.12375,-0.1261 -0.225,-5.48519 -0.225,-11.9091 l 0,-11.67984 11.325,0.14128 c 9.930519,0.12388 11.6618345,0.21602 14.0605205,0.74833 6.3666632,1.41287 8.6581773,3.46418 9.4305063,8.44197 0.804531,5.18533 -1.77624007,10.54495 -6.0379112,12.53924 -3.0574411,1.43077 -5.1008731,1.64633 -17.0781156,1.80156 -6.1875,0.0802 -11.35125,0.0426 -11.475,-0.0834 z m 118.876842,54.33002 c 2.061489,-0.24239 4.764819,-0.70179 6.007401,-1.0209 12.116493,-3.11165 20.882643,-11.65589 25.179813,-24.54243 3.62088,-10.85844 3.93498,-26.20631 0.77901,-38.06369 -2.043,-7.67589 -5.81797,-14.05773 -11.38513,-19.24743 -6.31258,-5.88456 -12.458699,-8.25128 -23.582933,-9.08122 -5.387607,-0.40195 -31.082545,-0.39115 -33.580327,0.0141 -4.043868,0.65611 -6.610155,2.57577 -7.728483,5.78111 -0.510774,1.46396 -0.541191,3.72619 -0.541191,40.25115 0,35.72079 0.03962,38.82702 0.514695,40.35 0.918468,2.94441 2.961507,4.72892 6.385305,5.57729 2.338776,0.57952 32.993716,0.56498 37.95184,-0.018 z m -25.87684,-14.7268 c -0.12375,-0.12787 -0.225,-14.16804 -0.225,-31.20039 0,-27.96193 0.04606,-30.98558 0.474537,-31.15 0.260994,-0.10015 3.062244,-0.18091 6.225,-0.17946 15.099484,0.007 22.04485,1.5504 26.439919,5.87581 5.65068,5.56111 7.773568,12.50005 7.746838,25.32155 -0.0148,7.08082 -0.54134,11.16899 -2.019583,15.67921 -2.121003,6.47134 -5.944023,11.39457 -10.534548,13.56624 -3.867921,1.82982 -5.307132,2.01288 -17.082162,2.17282 -5.940001,0.0807 -10.901251,0.0421 -11.025001,-0.0858 z m -171.375006,-4.63301 0,-8.84231 -21.45,-8.44479 c -12.07306,-4.75313 -21.45,-8.60488 -21.45,-8.81099 0,-0.20772 9.15346,-3.89451 21.15,-8.5187 11.6325,-4.48387 21.31875,-8.25725 21.525,-8.38529 0.57371,-0.35617 0.54047,-17.55273 -0.0344,-17.77331 -0.36833,-0.14134 -61.90955,26.27902 -62.82063,26.96962 -0.293,0.2221 -0.36167,2.04388 -0.3,7.95838 l 0.08,7.67035 31.2,13.56201 c 17.16,7.4591 31.4025,13.53845 31.65,13.50967 0.38864,-0.0452 0.45,-1.25807 0.45,-8.89464 z m 275.71093,-4.58437 31.18908,-13.5849 0,-7.75239 0,-7.7524 -31.2,-13.46213 c -17.16,-7.40417 -31.43625,-13.46239 -31.725,-13.46271 -0.48798,-6e-4 -0.525,0.61427 -0.525,8.71593 l 0,8.71651 1.575,0.6794 c 0.86625,0.37367 10.65276,4.17999 21.74778,8.45849 11.09502,4.2785 20.12916,7.91288 20.07588,8.0764 -0.0533,0.16352 -9.59244,4.02646 -21.19818,8.58432 -11.60571,4.55785 -21.3486,8.44146 -21.65088,8.63023 -0.51228,0.31991 -0.5496,0.93402 -0.5496,9.04069 0,8.15076 0.0337,8.69746 0.53592,8.69746 0.29475,0 14.571,-6.11321 31.725,-13.5849 z m -246.040837,-4.53327 c 1.995705,-0.83386 3.417024,-3.78247 4.064397,-8.43183 0.873864,-6.27603 3.360726,-37.16038 3.369837,-41.85001 0.02226,-11.4595 -2.799714,-15.58678 -10.185672,-14.89707 -4.852243,0.45311 -7.985974,3.59282 -8.779165,8.79592 -0.378177,2.48072 -0.223179,5.85764 1.374726,29.95115 0.579978,8.745 1.251774,17.14097 1.492878,18.6577 0.722652,4.54598 1.780737,6.6777 3.892909,7.84303 0.846573,0.46707 3.581901,0.42756 4.77009,-0.0689 z"
         id="path4177"
         inkscape:connector-curvature="0" />
      <path
         style="fill:#2f2f2f"
         d="m 2.5785848,927.03764 c -24.6201308,-1.37667 -48.2341778,-6.88197 -70.0500018,-16.33122 -4.866696,-2.10795 -15.593736,-7.56111 -20.400001,-10.37046 -46.248552,-27.03306 -79.627722,-71.42139 -92.367942,-122.83285 -4.49981,-18.15836 -6.7509,-38.91023 -5.92758,-54.64386 1.8614,-35.57148 10.74154,-65.77312 27.72812,-94.30422 26.90962,-45.19811 71.276756,-78.22612 121.867404,-90.72117 13.711773,-3.38658 25.909344,-5.12957 41.4159428,-5.91819 15.8703692,-0.80712 37.8937242,1.61157 55.3340592,6.077 55.844284,14.2984 102.474214,51.95482 128.117434,103.46236 12.6861,25.48163 19.17426,51.00342 20.7243,81.52119 0.89055,17.53343 -2.00577,41.04484 -7.41642,60.20433 -3.50814,12.42261 -7.52859,22.75905 -13.50822,34.72923 -27.25764,54.56503 -78.47162,93.64417 -138.107602,105.38389 -16.110711,3.17151 -33.329416,4.53129 -47.4094932,3.74397 z M -78.363574,776.51142 c 1.867941,-0.91987 3.751341,-2.78858 4.54494,-4.50948 0.508164,-1.10195 0.643923,-1.96701 0.642939,-4.0969 -0.0012,-2.33687 -0.107805,-2.90254 -0.793542,-4.20594 -1.107108,-2.10432 -3.356814,-4.11441 -5.517354,-4.92971 -1.420818,-0.53617 -2.213112,-0.64683 -3.884826,-0.5426 -2.719695,0.16957 -4.584952,1.01347 -6.432502,2.91028 -2.045997,2.10055 -2.818101,4.21697 -2.6484,7.25957 0.224958,4.03337 2.253708,6.94511 5.839657,8.38126 2.082156,0.8339 6.290685,0.69795 8.249088,-0.26648 z m 73.5921586,-0.65963 c 12.3206943,-0.77291 18.3342664,-3.03206 23.9439244,-8.99517 2.670186,-2.83842 4.891155,-6.93265 5.940837,-10.95158 0.883158,-3.38137 0.885282,-9.52829 0.0044,-12.84015 -1.812903,-6.81628 -6.413262,-11.75711 -14.02983,-15.06816 -1.294215,-0.56262 -2.3848801,-1.12841 -2.4236971,-1.25732 -0.038814,-0.12891 0.8552431,-0.75515 1.9867981,-1.39165 4.482237,-2.52126 8.029686,-6.7287 9.744462,-11.5574 0.860964,-2.42441 0.918573,-2.85608 0.925587,-6.93533 0.0064,-3.73929 -0.09125,-4.66439 -0.695724,-6.58942 -1.969251,-6.27128 -6.085605,-11.10905 -11.8967971,-13.98178 -5.9587231,-2.94567 -8.65652119,-3.19315 -33.4500009,-3.0685 -22.158828,0.11139 -21.092001,-0.0123 -23.861068,2.76759 -1.125879,1.1303 -1.667103,1.98546 -2.102547,3.32211 -0.569517,1.74822 -0.586386,2.91341 -0.586386,40.50001 l 0,38.7 0.66891,1.65 c 1.352526,3.33628 3.722083,5.09521 7.613809,5.65175 2.650047,0.37898 32.336268,0.41393 38.2172826,0.045 z M -31.998984,761.27747 c -0.122337,-0.12234 -0.222432,-6.07243 -0.222432,-13.22244 l 0,-12.99999 11.475,0.002 c 14.3490425,0.002 17.9343846,0.46441 21.9761227,2.83302 3.7922101,2.22239 5.6926862,6.92068 4.9416062,12.21648 -0.8075131,5.69371 -4.0653541,8.94078 -10.6427283,10.60755 -1.798149,0.45567 -3.9114721,0.5504 -14.7025686,0.6591 -6.931413,0.0698 -12.702663,0.0269 -12.825,-0.0955 z m -0.150954,-51.94744 0.07852,-11.625 10.05,0.0202 c 10.801839,0.0217 13.7779235,0.27719 17.7644016,1.52485 3.0585721,0.95726 4.64907012,2.18196 5.7855991,4.45498 0.8366251,1.67322 0.9000001,2.03271 0.9000001,5.10523 0,3.12753 -0.052815,3.41259 -0.9822331,5.3015 -1.37073599,2.78583 -3.649224,4.82808 -6.3000181,5.64683 -3.3370891,1.03072 -5.4843486,1.18428 -16.6462716,1.19046 l -10.728525,0.006 0.07852,-11.625 z m 115.878525,66.50594 c 7.234896,-0.54543 11.557311,-1.60503 16.500003,-4.04484 3.413,-1.68473 5.97111,-3.61092 9.03775,-6.8052 5.78291,-6.02361 9.16109,-13.18127 10.9574,-23.21652 0.61032,-3.40953 0.69252,-4.83542 0.69828,-12.11437 0.005,-6.57645 -0.10278,-8.89848 -0.5325,-11.44672 -1.94451,-11.53115 -6.4284,-20.27241 -13.56804,-26.45077 -5.79451,-5.01434 -11.694918,-7.3654 -20.799678,-8.28777 -4.775712,-0.48382 -34.857838,-0.40785 -36.987451,0.0934 -3.517032,0.82782 -5.766294,2.87301 -6.788622,6.17271 -0.478002,1.54281 -0.517143,4.5415 -0.517143,39.61914 0,39.59134 6e-4,39.60819 1.231497,42.04317 1.119759,2.21493 4.108056,4.01044 7.382562,4.43578 2.81211,0.36528 28.546651,0.36681 33.385942,0.002 z M 60.925499,760.20254 c -0.08334,-0.21863 -0.116742,-14.1675 -0.07422,-30.99751 l 0.07731,-30.6 7.5,-0.0909 c 14.667481,-0.17774 20.936605,1.24557 25.542736,5.7991 5.718009,5.65272 7.894435,13.42281 7.518455,26.84179 -0.095,3.38959 -0.37009,6.96961 -0.65415,8.51206 -2.048534,11.12364 -7.357628,18.04233 -15.4835,20.17774 -2.6106,0.68605 -24.181051,1.00192 -24.426628,0.3577 z m 104.535931,-8.61327 c 17.06808,-7.44481 31.13976,-13.70438 31.27041,-13.91013 0.13065,-0.20576 0.23964,-3.62693 0.24216,-7.60261 0.004,-6.51548 -0.0472,-7.27311 -0.52041,-7.6807 -0.81849,-0.70498 -62.7378,-27.2992 -63.07521,-27.09067 -0.1887,0.11663 -0.29979,3.45026 -0.29979,8.99744 l 0,8.81217 4.725,1.83877 c 2.59875,1.01133 12.28452,4.76664 21.52392,8.34513 9.2394,3.5785 16.76928,6.64137 16.7331,6.80637 -0.0362,0.165 -9.6882,4.08 -21.44892,8.7 l -21.3831,8.4 -0.0794,9.11082 -0.0795,9.11082 0.67947,-0.15068 c 0.37368,-0.0829 14.64423,-6.2419 31.71228,-13.68673 z m -275.68285,4.62268 0,-8.84308 -0.675,-0.41447 c -0.37125,-0.22796 -10.09125,-4.11196 -21.6,-8.6311 -11.50875,-4.51914 -20.925,-8.29056 -20.925,-8.38092 0,-0.0904 7.32375,-2.97721 16.275,-6.41524 8.95125,-3.43802 18.67125,-7.18776 21.6,-8.33277 l 5.325,-2.08182 0,-8.96106 c 0,-4.96763 -0.11998,-9.0352 -0.26923,-9.12744 -0.36033,-0.22269 -63.03153,26.94965 -63.36252,27.47209 -0.3196,0.50444 -0.34749,14.66978 -0.0299,15.16946 0.30194,0.47501 62.1113,27.32499 62.98662,27.36138 l 0.675,0.0281 0,-8.84309 z m 28.873983,-8.87241 c 2.642262,-0.73379 4.326558,-4.06587 4.996419,-9.8845 0.850575,-7.3884 3.328932,-37.86023 3.323658,-40.86492 -0.0117,-6.66006 -1.027062,-10.65887 -3.260499,-12.84075 -1.661997,-1.62363 -3.042,-2.09434 -6.140145,-2.09434 -5.039376,0 -8.409109,2.61598 -9.673879,7.50998 -0.676557,2.61793 -0.477753,8.33366 1.079637,31.04002 1.223559,17.83921 1.527654,20.51711 2.677188,23.57559 1.190779,3.16821 3.738598,4.464 6.997621,3.55892 z"
         id="path4175"
         inkscape:connector-curvature="0" />
      <path
         style="fill:#161616"
         d="m 3.8535848,927.14735 c -2.18625,-0.0604 -3.97500009,-0.2205 -3.97500009,-0.35592 0,-0.13539 -1.51875001,-0.33753 -3.37500011,-0.44919 -14.7210006,-0.88542 -33.5719596,-4.71915 -48.6963976,-9.90336 -29.59152,-10.14315 -55.621727,-26.58579 -77.530137,-48.97389 -29.71261,-30.36318 -48.5354,-68.73449 -54.43065,-110.95995 -0.65866,-4.71774 -1.36782,-11.8551 -1.36782,-13.76647 0,-0.96756 -0.14112,-1.68058 -0.34615,-1.74892 -0.4952,-0.16507 -0.4952,-22.80416 0,-22.96923 0.20503,-0.0683 0.34615,-0.78136 0.34615,-1.74892 0,-3.62458 1.3341,-14.51088 2.72599,-22.24423 3.16871,-17.60529 8.96842,-35.20254 16.90637,-51.29664 10.10606,-20.48989 21.69826,-36.66882 37.79148,-52.74457 13.22655,-13.21219 26.00267,-23.00771 41.726163,-31.99168 24.918252,-14.2376 53.608738,-23.11644 81.4500016,-25.20632 2.5575001,-0.19198 4.73937311,-0.48045 4.84860611,-0.64104 0.27708001,-0.40736 22.73724629,-0.39475 23.00278829,0.0129 0.109233,0.1677 1.683606,0.39349 3.498606,0.50175 4.395402,0.26218 12.420622,1.22595 17.984053,2.15974 34.040224,5.71349 66.435542,20.59508 93.110602,42.77268 15.71085,13.06196 29.89395,29.17934 40.75308,46.31093 16.90269,26.6661 27.56232,58.51726 29.86923,89.25 0.192,2.5575 0.477,4.73724 0.63336,4.84386 0.17061,0.11633 0.28431,4.71752 0.28431,11.50615 0,6.78862 -0.1137,11.38981 -0.28431,11.50614 -0.15636,0.10662 -0.44136,2.28636 -0.63336,4.84386 -1.39185,18.54245 -6.18369,39.05312 -13.21152,56.55 -10.52196,26.19599 -25.48929,48.62505 -45.54549,68.25153 -30.37881,29.7279 -68.712753,48.53235 -110.959954,54.43065 -4.717731,0.65865 -11.855098,1.36782 -13.76647,1.36782 -0.898443,0 -1.67853,0.11964 -1.733532,0.26589 -0.113667,0.30222 -13.076376,0.59199 -19.0749992,0.42642 z M -78.25645,776.61085 c 2.022618,-0.98957 4.139712,-3.31293 4.782639,-5.2486 0.57792,-1.73996 0.639795,-4.97793 0.125088,-6.5459 -2.309865,-7.03659 -11.402619,-9.07053 -16.659874,-3.72661 -1.807389,1.83719 -2.629206,3.98453 -2.631159,6.87501 -0.0015,2.21179 0.102657,2.66535 1.033338,4.5 0.871215,1.71742 1.331877,2.23929 2.911035,3.29784 2.265313,1.51849 3.722101,1.90318 6.62815,1.75027 1.595286,-0.0839 2.647998,-0.33311 3.810783,-0.90201 z M 0.92858473,775.58629 C 12.17971,773.91387 19.061938,769.51331 23.257759,761.30882 c 1.974462,-3.86086 2.549619,-6.49012 2.560227,-11.70378 0.01062,-5.21943 -0.362133,-7.01198 -2.265675,-10.89561 -2.175363,-4.4382 -6.326193,-8.12372 -12.048726,-10.69808 -1.44375,-0.64949 -2.6250001,-1.25434 -2.6250001,-1.34412 0,-0.0898 0.6282841,-0.49653 1.3961851,-0.9039 5.260983,-2.79095 9.444684,-8.08931 10.784889,-13.6583 0.729036,-3.02938 0.660273,-8.30764 -0.147945,-11.35647 -0.88152,-3.32534 -2.805345,-6.77646 -5.226486,-9.3757 -4.296549,-4.61262 -8.4262591,-6.71568 -15.35664328,-7.82042 -3.84136512,-0.61234 -38.85389772,-0.95695 -42.84306972,-0.42169 -4.539888,0.60915 -7.107406,2.54116 -8.387875,6.31174 l -0.666471,1.96254 -0.09367,36.15 c -0.06315,24.37216 0.01119,37.07855 0.228213,39.00001 0.631161,5.58846 2.870976,8.31705 7.634881,9.30096 1.921134,0.39677 41.8645867,0.15592 44.72798773,-0.26971 z M -31.721415,761.25503 c -0.110001,-0.10999 -0.200001,-6.06461 -0.200001,-13.23248 l 0,-13.03249 12.225,0.14753 c 13.6023636,0.16414 15.7328856,0.41218 19.66675271,2.28965 2.36900709,1.13062 4.71586809,3.55934 5.45198409,5.64215 0.6965821,1.97095 0.9304981,6.20166 0.4545541,8.22128 -1.4568271,6.18187 -6.05303119,9.14048 -15.3188404,9.86082 -4.2156695,0.32773 -21.9727355,0.41026 -22.2794495,0.10354 z m -0.200001,-51.84803 0,-11.6122 11.175,0.14194 c 9.773805,0.12414 11.5179995,0.21801 13.9105205,0.74861 6.15523819,1.36509 8.3537732,3.31442 9.1455603,8.10887 0.827748,5.0122 -1.52991307,10.08192 -5.6624252,12.17602 -2.996589,1.51849 -5.0037421,1.73969 -17.2436556,1.90033 l -11.325,0.14863 0,-11.6122 z m 121.950003,65.90858 c 11.833833,-2.23848 20.506203,-8.77734 25.942773,-19.56054 7.02093,-13.9258 7.17159,-37.38379 0.33201,-51.69478 -4.75442,-9.94798 -13.46083,-17.35966 -22.987527,-19.56905 -5.457873,-1.26577 -7.648311,-1.40558 -24.320578,-1.55238 -11.355438,-0.1 -16.899402,-0.0399 -18.45,0.20007 -4.234335,0.65521 -6.837405,2.47277 -8.134626,5.67989 l -0.682053,1.68624 0,38.85 c 0,36.56611 0.03175,38.95277 0.540087,40.59808 0.61881,2.00286 2.315754,4.04857 4.046823,4.87854 2.633499,1.26265 3.310218,1.29918 22.26309,1.2016 16.898824,-0.087 18.377488,-0.13648 21.450001,-0.71767 z m -28.876408,-45.70042 0.07641,-31.01013 5.7,-0.0901 c 10.710391,-0.1693 18.13684,0.75697 22.621708,2.82149 1.736634,0.79943 2.719131,1.53148 4.5,3.35293 5.417196,5.54065 7.378713,12.14006 7.331293,24.66567 -0.0352,9.30218 -1.13816,14.84403 -4.087426,20.53775 -1.601721,3.09221 -5.513169,7.12978 -8.103513,8.36481 -3.951183,1.88384 -5.327373,2.06118 -17.238468,2.22139 l -10.876408,0.1463 0.07641,-31.01012 z m -171.144199,26.70526 c 0.0644,-7.20793 0.002,-8.94866 -0.32951,-9.22398 -0.2249,-0.18665 -9.83407,-4.05201 -21.3537,-8.58969 -11.51964,-4.53768 -21.01261,-8.31814 -21.0955,-8.40102 -0.0829,-0.0829 -0.08,-0.22141 0.006,-0.30785 0.0864,-0.0864 9.45769,-3.73811 20.825,-8.11485 11.36732,-4.37673 20.9736,-8.15793 21.3473,-8.40268 l 0.67945,-0.44498 -0.0794,-8.91517 -0.0794,-8.91517 -0.9,0.0571 c -0.495,0.0314 -14.8725,6.12335 -31.95,13.53761 l -31.05,13.48048 -0.08,7.84848 -0.08,7.84847 0.83,0.47086 c 2.0419,1.15835 62.09466,27.05645 62.63,27.00954 0.58335,-0.0511 0.6022,-0.29907 0.6794,-8.93718 z m 274.8935,-4.33787 c 16.8999,-7.35486 31.03086,-13.56797 31.40211,-13.80691 0.67083,-0.43175 0.675,-0.48144 0.675,-8.04079 0,-5.7243 -0.0928,-7.68094 -0.375,-7.90781 -0.87879,-0.70646 -61.95798,-26.87952 -62.775,-26.89974 l -0.9,-0.0223 -0.0795,8.73456 c -0.0683,7.50098 -0.0153,8.78781 0.37482,9.11159 0.24987,0.20736 9.91902,4.03931 21.48705,8.51544 11.568,4.47613 21.00249,8.27341 20.9655,8.43841 -0.037,0.165 -9.53535,4.01655 -21.10755,8.559 -11.5722,4.54245 -21.2091,8.36417 -21.41535,8.49271 -0.28614,0.17832 -0.375,2.31481 -0.375,9.016 0,4.83026 0.09,8.8723 0.20001,8.98229 0.10998,0.11 0.42405,0.2 0.69789,0.2 0.27384,0 14.32509,-6.01761 31.22499,-13.37248 z m -245.633575,-4.73283 c 2.267583,-0.94745 3.702876,-3.81353 4.396299,-8.77878 0.863286,-6.18156 3.349536,-37.13096 3.359187,-41.81591 0.02004,-9.72056 -1.931457,-13.99037 -6.862005,-15.01395 -3.802749,-0.78944 -7.597152,0.31058 -9.97699,2.89239 -2.678781,2.90614 -3.163542,5.44721 -2.706267,14.18603 0.557217,10.64873 2.381514,37.27986 2.715132,39.63554 0.689802,4.87067 1.928628,7.6857 3.8224,8.68577 1.321005,0.69759 3.842613,0.79789 5.252244,0.20891 z"
         id="path4173"
         inkscape:connector-curvature="0" />
      <path
         style="fill:#000000"
         d="m 5.5785849,927.0749 c -4.1908802,-0.14106 -4.79609117,-0.20937 -3.0000001,-0.33867 l 2.25,-0.16197 -2.55,-0.0611 c -3.5537341,-0.0852 -11.8690473,-0.83943 -17.4000008,-1.5783 -35.280391,-4.71309 -68.714626,-19.04391 -96.604484,-41.40729 -43.96175,-35.25054 -70.58294,-86.82797 -73.7681,-142.92252 -0.19209,-3.38284 -0.2581,-3.79142 -0.33928,-2.1 -0.19585,4.08036 -0.43573,-9.08068 -0.26794,-14.70001 0.0936,-3.135 0.21487,-4.6875 0.26947,-3.45 0.0847,1.92031 0.13421,1.63457 0.33775,-1.95 2.55423,-44.98311 20.00612,-86.95813 50.14168,-120.6 34.77264,-38.81848 83.440688,-62.23509 135.53671872,-65.21342 3.44398508,-0.1969 3.90902408,-0.26925 2.24418608,-0.34918 -1.1550001,-0.0555 0.3975,-0.17655 3.4500001,-0.26911 5.5345891,-0.16782 18.5371081,0.071 14.5500001,0.26728 -1.703067,0.0838 -1.306137,0.14844 2.1,0.34185 58.900019,3.34446 112.639775,32.48889 147.901175,80.21053 19.36134,26.203 32.16735,57.90721 36.44424,90.22595 0.73563,5.55871 1.48146,13.8624 1.55712,17.3361 l 0.0556,2.55 0.17334,-2.25 c 0.13014,-1.68927 0.21012,-0.79211 0.32094,3.6 0.15798,6.25995 -0.0908,18.07648 -0.29679,14.10001 -0.10734,-2.07194 -0.12351,-2.11942 -0.20445,-0.6 -1.2366,23.22072 -5.19891,42.39175 -12.92475,62.53464 -22.29129,58.11813 -71.6544,102.89238 -131.626384,119.39025 -13.532775,3.72276 -31.624353,6.57219 -43.350001,6.82764 l -2.55,0.0556 2.25,0.19191 c 1.800525,0.15357 1.291122,0.20337 -2.55,0.24924 -2.64,0.0316 -5.2725,0.10011 -5.85,0.15237 -0.5775,0.0522 -3.4125001,0.0156 -6.3000001,-0.0818 z M -78.234643,776.74409 c 3.491547,-1.68994 5.513226,-4.93118 5.513226,-8.83905 0,-3.82435 -2.210907,-7.37637 -5.639217,-9.0599 -1.510236,-0.74162 -2.044878,-0.83994 -4.560783,-0.83866 -2.51022,10e-4 -3.032115,0.0974 -4.377531,0.806 -2.187064,1.15193 -4.39426,3.67814 -5.058343,5.78943 -0.68997,2.1936 -0.53133,5.70663 0.346812,7.67994 1.117203,2.51052 4.057383,4.73832 7.095577,5.37638 2.034948,0.42737 4.647126,0.0699 6.680259,-0.91414 z m 78.41322772,-0.8592 c 3.26930408,-0.43122 8.10234918,-1.63037 10.54211428,-2.61564 4.065345,-1.64176 8.492781,-5.23596 11.077545,-8.99279 5.237487,-7.61242 5.854164,-19.02678 1.444359,-26.73431 -1.25979,-2.20189 -4.375107,-5.47777 -6.660795,-7.00409 -1.601937,-1.06973 -4.545867,-2.581 -6.777573,-3.47928 -0.7005721,-0.28198 -0.6710341,-0.32421 0.9,-1.28666 7.396791,-4.53144 11.07435,-10.85146 11.07435,-19.03169 0,-6.30291 -2.016519,-11.41961 -6.256944,-15.87633 -4.38528,-4.60898 -9.4074361,-6.88267 -16.9971273,-7.69514 -4.6635871,-0.49923 -42.1365877,-0.30464 -43.6991227,0.22693 -1.819959,0.61914 -3.927472,2.2243 -4.80433,3.65914 -1.825521,2.98719 -1.761417,1.33086 -1.67307,43.22913 0.07701,36.52294 0.10557,38.28751 0.642879,39.72088 0.868971,2.31814 2.067975,3.83504 3.758659,4.75523 3.043035,1.65623 3.4881,1.68404 25.079055,1.56768 12.2692625,-0.0661 20.7698677,-0.23464 22.35000072,-0.44306 z m -32.10000072,-27.62757 0,-12.95318 12.525,0.13326 c 13.9030356,0.14793 15.2175156,0.29522 19.1250007,2.14305 2.5256071,1.19435 4.1614771,2.75446 5.2161601,4.97459 0.7203091,1.51626 0.7838401,1.9661 0.7838401,5.55 0,3.65828 -0.051729,4.00532 -0.8346601,5.59936 -1.131117,2.30296 -2.948739,4.04561 -5.4653401,5.23991 -3.8850391,1.84373 -4.9664641,1.96572 -18.8250007,2.12355 l -12.525,0.14263 0,-12.95317 z m 0,-38.87696 0,-11.27468 11.475,0.13154 c 12.4359365,0.14255 14.0891466,0.32352 17.7174666,1.93941 2.1288451,0.9481 3.8702131,2.82966 4.4427032,4.80039 0.228156,0.78541 0.414831,2.64301 0.414831,4.12801 0,2.40667 -0.102708,2.91679 -0.9453751,4.69538 -0.51995697,1.09746 -1.51248,2.56248 -2.205612,3.25561 -3.0261121,3.02611 -6.2864222,3.59478 -20.6240137,3.59724 l -10.275,0.002 0,-11.27467 z M 88.62522,775.73462 c 12.16497,-2.00969 20.49934,-7.66739 26.55939,-18.02958 2.39436,-4.09413 4.21596,-9.43181 5.32899,-15.61504 0.92319,-5.12847 1.13946,-16.42757 0.42255,-22.07392 -1.43541,-11.30488 -5.37126,-20.08865 -11.91622,-26.59376 -5.69791,-5.66323 -10.555409,-8.16347 -19.141343,-9.85241 -2.163768,-0.42563 -5.331294,-0.52086 -20.912782,-0.62872 -20.358747,-0.14092 -20.745777,-0.11189 -23.509092,1.76354 -1.576458,1.06993 -2.437929,2.21859 -3.36969,4.49304 l -0.658437,1.60726 -0.08805,37.05 c -0.05727,24.09942 0.01944,37.86496 0.219453,39.3815 0.705636,5.35015 3.182106,8.01634 8.277078,8.91117 0.820335,0.14408 9.186516,0.22518 18.591516,0.18023 14.429983,-0.069 17.583514,-0.16161 20.196634,-0.59331 z m -27.246634,-46.23588 0,-30.81228 9.225,0.14639 c 9.829108,0.15597 12.84757,0.49057 16.954867,1.87947 2.754048,0.9313 4.663128,2.21779 6.939324,4.6763 3.22914,3.48777 5.260404,8.22907 6.219113,14.51641 0.5378,3.52702 0.54796,14.72081 0.0165,18.15001 -1.238771,7.99257 -3.609041,13.17679 -7.903502,17.28643 -2.160867,2.06788 -3.988701,3.09648 -7.199682,4.05159 -2.04513,0.60832 -2.985108,0.66421 -13.226592,0.78641 l -11.025001,0.13155 0,-30.81228 z m -171.310556,35.57602 c 0.19283,-0.36031 0.31055,-3.75945 0.31055,-8.96677 0,-7.55949 -0.0518,-8.44541 -0.525,-8.98405 -0.31222,-0.35538 -9.00534,-3.92521 -21.44946,-8.80823 -11.50845,-4.51587 -20.92441,-8.27817 -20.92435,-8.36067 6e-5,-0.0825 9.45512,-3.79032 21.01125,-8.23959 11.55612,-4.44927 21.17458,-8.19045 21.37435,-8.31374 0.26725,-0.16494 0.38662,-2.50581 0.45183,-8.86042 0.0487,-4.74994 0.009,-8.95442 -0.0888,-9.34329 -0.14449,-0.57597 -0.32774,-0.68061 -0.98861,-0.5645 -1.21304,0.21312 -63.13794,27.16186 -63.41413,27.59683 -0.13086,0.20609 -0.24,3.76692 -0.24253,7.91297 -0.004,6.64028 0.0543,7.58717 0.48999,7.94873 0.55389,0.45969 62.74775,27.5137 63.31987,27.54382 0.20044,0.0106 0.50419,-0.24194 0.675,-0.56109 z m 275.32413,-13.10464 c 17.29002,-7.5267 31.53561,-13.83795 31.65684,-14.025 0.12123,-0.18705 0.22248,-3.74572 0.225,-7.90817 0.005,-7.52132 0,-7.57078 -0.67041,-8.0049 -1.17714,-0.76178 -62.64834,-27.17702 -63.24393,-27.17702 -0.34059,0 -0.63777,0.2715 -0.73908,0.67516 -0.22437,0.89387 -0.0448,17.52312 0.19176,17.75907 0.10107,0.10081 9.5928,3.82211 21.09273,8.26955 11.49996,4.44744 21.11325,8.20057 21.36291,8.34029 0.31467,0.17609 -6.06456,2.80928 -20.79273,8.58275 -11.68566,4.58079 -21.41541,8.54453 -21.62166,8.80829 -0.27981,0.35785 -0.375,2.62897 -0.375,8.9477 0,4.65747 0.0819,8.68166 0.1821,8.94266 0.10014,0.261 0.43251,0.47454 0.73857,0.47454 0.30606,0 14.70285,-6.15822 31.9929,-13.68492 z m -246.051166,-4.57898 c 2.181015,-0.9907 3.570234,-3.37245 4.314084,-7.3963 0.623256,-3.37151 3.623553,-39.33071 3.62124,-43.40136 -0.0063,-11.10581 -2.65221,-15.33747 -9.597735,-15.34991 -2.150802,-0.004 -2.837301,0.12555 -4.385229,0.82657 -2.276035,1.03076 -4.028431,2.7867 -5.124547,5.13489 l -0.840225,1.8 0.0261,6.75 c 0.02808,7.26371 1.898349,37.08982 2.661876,42.45001 1.032414,7.24784 2.737816,9.64515 6.91204,9.71635 0.66,0.0113 1.745586,-0.22736 2.412411,-0.53025 z"
         id="path4171"
         inkscape:connector-curvature="0" />
    </g>
  </g>
</svg>
